<svg height="430pt" viewBox="-17 0 430 430.07205" width="430pt" xmlns="http://www.w3.org/2000/svg"><path d="m198.007812 40.953125c-105.566406 0-191.144531 85.578125-191.144531 191.144531 0 105.570313 85.578125 191.148438 191.144531 191.148438 105.570313 0 191.148438-85.578125 191.148438-191.148438h-191.148438zm0 0" fill="#feda38" fill-rule="evenodd"/><path d="m198.007812 430.070312c-109.160156 0-197.9726558-88.8125-197.9726558-197.972656s88.8124998-197.972656 197.9726558-197.972656c3.773438 0 6.828126 3.054688 6.828126 6.828125v184.320313h184.320312c3.769531 0 6.828125 3.050781 6.828125 6.824218 0 109.160156-88.8125 197.972656-197.976563 197.972656zm-6.824218-382.164062c-98.488282 3.597656-177.496094 84.839844-177.496094 184.191406 0 101.636719 82.6875 184.320313 184.320312 184.320313 99.351563 0 180.597657-79.007813 184.199219-177.492188h-184.199219c-3.769531 0-6.824218-3.054687-6.824218-6.828125zm0 0"/><path d="m361.847656 232.097656c0 90.488282-73.351562 163.839844-163.839844 163.839844-90.484374 0-163.839843-73.351562-163.839843-163.839844 0-90.484375 73.355469-163.839844 163.839843-163.839844 90.488282 0 163.839844 73.355469 163.839844 163.839844zm0 0" fill="#fbad4a"/><path d="m198.007812 402.765625c-94.105468 0-170.664062-76.558594-170.664062-170.667969 0-94.105468 76.558594-170.664062 170.664062-170.664062 94.109376 0 170.667969 76.558594 170.667969 170.664062 0 94.109375-76.558593 170.667969-170.667969 170.667969zm0-327.679687c-86.574218 0-157.011718 70.433593-157.011718 157.011718 0 86.582032 70.4375 157.015625 157.011718 157.015625 86.578126 0 157.015626-70.433593 157.015626-157.015625 0-86.578125-70.4375-157.011718-157.015626-157.011718zm0 0"/><path d="m155.957031 166.265625c0-1.296875.859375-2.15625 2.152344-2.15625h51.890625c29.496094 0 44.136719 15.074219 44.136719 38.539063 0 17.015624-8.183594 27.347656-19.589844 31.867187v.433594c9.902344 2.800781 22.175781 14.207031 22.175781 33.800781 0 27.347656-17.226562 41.773438-47.800781 41.773438h-50.8125c-1.292969 0-2.152344-.859376-2.152344-2.152344zm53.613281 61.148437c16.144532 0 25.617188-9.253906 25.617188-22.820312 0-13.996094-9.472656-23.042969-25.617188-23.042969h-33.164062c-.859375 0-1.289062.433594-1.289062 1.296875v43.277344c0 .859375.429687 1.289062 1.289062 1.289062zm-33.160156 65.671876h34.238282c17.4375 0 26.914062-9.476563 26.914062-24.113282 0-14.429687-9.476562-24.121094-26.914062-24.121094h-34.238282c-.859375 0-1.289062.433594-1.289062 1.292969v45.648438c0 .859375.429687 1.292969 1.289062 1.292969zm0 0"/><path d="m184.355469 170.660156c-3.769531 0-6.824219-3.054687-6.824219-6.828125v-20.480469c0-3.773437 3.054688-6.828124 6.824219-6.828124s6.828125 3.054687 6.828125 6.828124v20.480469c0 3.773438-3.058594 6.828125-6.828125 6.828125zm0 0"/><path d="m204.835938 170.660156c-3.769532 0-6.828126-3.054687-6.828126-6.828125v-20.480469c0-3.773437 3.058594-6.828124 6.828126-6.828124 3.769531 0 6.828124 3.054687 6.828124 6.828124v20.480469c0 3.773438-3.058593 6.828125-6.828124 6.828125zm0 0"/><path d="m184.355469 334.5c-3.769531 0-6.824219-3.054688-6.824219-6.828125v-20.480469c0-3.773437 3.054688-6.824218 6.824219-6.824218s6.828125 3.050781 6.828125 6.824218v20.480469c0 3.773437-3.058594 6.828125-6.828125 6.828125zm0 0"/><path d="m204.835938 334.5c-3.769532 0-6.828126-3.054688-6.828126-6.828125v-20.480469c0-3.773437 3.058594-6.824218 6.828126-6.824218 3.769531 0 6.828124 3.050781 6.828124 6.824218v20.480469c0 3.773437-3.058593 6.828125-6.828124 6.828125zm0 0"/><path d="m320.890625 6.820312-61.441406 143.359376h54.613281v88.746093l75.09375-136.535156h-68.265625zm0 0" fill="#85d839" fill-rule="evenodd"/><path d="m314.0625 245.753906c-.5625 0-1.132812-.070312-1.699219-.214844-3.019531-.773437-5.128906-3.5-5.128906-6.613281v-81.921875h-47.785156c-2.292969 0-4.4375-1.152344-5.699219-3.066406-1.265625-1.917969-1.480469-4.339844-.574219-6.445312l61.441407-143.359376c1.273437-2.980468 4.46875-4.628906 7.644531-4 3.171875.652344 5.453125 3.445313 5.453125 6.6875v88.746094h61.441406c2.410156 0 4.644531 1.273438 5.875 3.351563 1.226562 2.074219 1.265625 4.648437.101562 6.761719l-75.089843 136.53125c-1.21875 2.21875-3.53125 3.542968-5.980469 3.542968zm-44.261719-102.402344h44.261719c3.769531 0 6.828125 3.054688 6.828125 6.828126v62.167968l56.71875-103.128906h-56.71875c-3.769531 0-6.828125-3.054688-6.828125-6.828125v-62.3125zm0 0"/></svg>