<svg height="402pt" viewBox="0 -27 402.77338 402" width="402pt" xmlns="http://www.w3.org/2000/svg"><path d="m361.8125 225.667969h-279.890625l-13.65625-157.015625h327.679687zm0 0" fill="#94c1ff"/><g fill="#0e65e5"><path d="m361.8125 232.492188h-279.890625c-3.542969 0-6.496094-2.707032-6.800781-6.234376l-13.652344-157.015624c-.167969-1.902344.472656-3.792969 1.765625-5.203126 1.292969-1.410156 3.117187-2.210937 5.03125-2.210937h327.679687c2.066407 0 4.019532.933594 5.3125 2.542969 1.300782 1.605468 1.796876 3.714844 1.363282 5.730468l-34.132813 157.015626c-.6875 3.140624-3.460937 5.375-6.675781 5.375zm-273.632812-13.652344h268.132812l31.160156-143.359375h-311.761718zm0 0"/><path d="m68.261719 75.480469c-3.4375 0-6.394531-2.582031-6.78125-6.074219l-6.152344-55.367188h-48.5c-3.773437 0-6.828125-3.054687-6.828125-6.824218 0-3.773438 3.054688-6.828125 6.828125-6.828125h54.613281c3.476563 0 6.398438 2.617187 6.785156 6.074219l6.828126 61.441406c.414062 3.746094-2.289063 7.121094-6.035157 7.535156-.253906.027344-.511719.042969-.757812.042969zm0 0"/><path d="m88.738281 293.933594c-3.433593 0-6.390625-2.582032-6.777343-6.074219l-6.828126-61.441406c-.414062-3.746094 2.285157-7.121094 6.03125-7.535157 3.8125-.433593 7.128907 2.285157 7.542969 6.03125l6.824219 61.4375c.414062 3.746094-2.285156 7.125-6.03125 7.539063-.253906.027344-.511719.042969-.761719.042969zm0 0"/></g><path d="m122.878906 314.414062c0 15.082032-12.222656 27.304688-27.304687 27.304688s-27.308594-12.222656-27.308594-27.304688c0-15.082031 12.226563-27.308593 27.308594-27.308593s27.304687 12.226562 27.304687 27.308593zm0 0" fill="#2a8ee6" fill-rule="evenodd"/><path d="m95.574219 348.546875c-18.820313 0-34.132813-15.3125-34.132813-34.132813 0-18.820312 15.3125-34.132812 34.132813-34.132812 18.820312 0 34.132812 15.3125 34.132812 34.132812 0 18.820313-15.3125 34.132813-34.132812 34.132813zm0-54.613281c-11.292969 0-20.480469 9.1875-20.480469 20.480468 0 11.292969 9.1875 20.480469 20.480469 20.480469s20.480469-9.1875 20.480469-20.480469c0-11.292968-9.1875-20.480468-20.480469-20.480468zm0 0" fill="#0e65e5"/><path d="m354.988281 314.414062c0 15.082032-12.226562 27.304688-27.308593 27.304688-15.082032 0-27.304688-12.222656-27.304688-27.304688 0-15.082031 12.222656-27.308593 27.304688-27.308593 15.082031 0 27.308593 12.226562 27.308593 27.308593zm0 0" fill="#2a8ee6" fill-rule="evenodd"/><path d="m327.679688 348.546875c-18.820313 0-34.132813-15.3125-34.132813-34.132813 0-18.820312 15.3125-34.132812 34.132813-34.132812 18.820312 0 34.132812 15.3125 34.132812 34.132812 0 18.820313-15.3125 34.132813-34.132812 34.132813zm0-54.613281c-11.292969 0-20.480469 9.1875-20.480469 20.480468 0 11.292969 9.1875 20.480469 20.480469 20.480469 11.292968 0 20.480468-9.1875 20.480468-20.480469 0-11.292968-9.1875-20.480468-20.480468-20.480468zm0 0" fill="#0e65e5"/><path d="m300.375 321.238281h-177.496094c-3.773437 0-6.824218-3.054687-6.824218-6.824219 0-3.769531 3.050781-6.828124 6.824218-6.828124h177.496094c3.773438 0 6.824219 3.058593 6.824219 6.828124 0 3.769532-3.050781 6.824219-6.824219 6.824219zm0 0" fill="#0e65e5"/><path d="m334.507812 184.707031c-3.773437 0-6.828124-3.058593-6.828124-6.828125v-27.304687c0-3.769531 3.054687-6.828125 6.828124-6.828125 3.773438 0 6.824219 3.058594 6.824219 6.828125v27.304687c0 3.769532-3.050781 6.828125-6.824219 6.828125zm0 0" fill="#fff"/><path d="m348.160156 171.054688h-27.308594c-3.773437 0-6.824218-3.058594-6.824218-6.828126 0-3.769531 3.050781-6.828124 6.824218-6.828124h27.308594c3.773438 0 6.828125 3.058593 6.828125 6.828124 0 3.769532-3.054687 6.828126-6.828125 6.828126zm0 0" fill="#fff"/><path d="m80.730469 212.011719 1.191406 13.65625h279.890625l2.96875-13.65625zm0 0" fill="#0e65e5"/><path d="m361.8125 232.492188h-279.890625c-3.542969 0-6.496094-2.707032-6.800781-6.234376l-1.1875-13.652343c-.167969-1.90625.472656-3.796875 1.765625-5.207031 1.296875-1.40625 3.121093-2.210938 5.035156-2.210938h284.046875c2.066406 0 4.019531.933594 5.3125 2.542969 1.300781 1.605469 1.792969 3.710937 1.359375 5.730469l-2.964844 13.65625c-.6875 3.136718-3.460937 5.375-6.675781 5.375zm-273.632812-13.652344h268.132812zm0 0" fill="#0e65e5"/><path d="m191.148438 95.960938h-102.402344c-3.773438 0-6.824219-3.058594-6.824219-6.828126 0-3.769531 3.050781-6.824218 6.824219-6.824218h102.402344c3.773437 0 6.824218 3.054687 6.824218 6.824218 0 3.769532-3.050781 6.828126-6.824218 6.828126zm0 0" fill="#fff"/></svg>