<svg height="512pt" viewBox="-2 0 511 512" width="512pt" xmlns="http://www.w3.org/2000/svg"><path d="m263.828125 215.074219c-1.707031-10.472657 5.398437-20.351563 15.875-22.058594l72.363281-11.796875 61.199219-48.851562c8.292969-6.621094 20.386719-5.265626 27.007813 3.03125 6.621093 8.292968 5.261718 20.382812-3.03125 27.003906l-65.128907 51.992187c-2.578125 2.058594-5.640625 3.417969-8.898437 3.945313l-77.328125 12.609375c-10.472657 1.707031-20.351563-5.398438-22.058594-15.875zm0 0" fill="#f2a68d"/><path d="m440.273438 135.394531c-6.621094-8.292969-18.714844-9.648437-27.007813-3.03125l-43.671875 34.863281 19.292969 33.777344 48.355469-38.601562c8.292968-6.621094 9.652343-18.710938 3.03125-27.007813zm0 0" fill="#4699f2"/><path d="m215.015625 335.542969-34.601563-118.171875c-2.417968-8.261719 2.320313-16.921875 10.582032-19.339844l147.0625-43.054688c8.261718-2.421874 16.921875 2.316407 19.339844 10.578126l34.597656 118.171874c2.417968 8.261719-2.316406 16.921876-10.582032 19.339844l-147.058593 43.058594c-8.265625 2.417969-16.921875-2.320312-19.339844-10.582031zm0 0" fill="#965028"/><path d="m124.535156 511.527344c-13.449218-2.160156-22.605468-14.8125-20.445312-28.265625l17.191406-107.144531-24.023438-95.75c-3.3125-13.214844 4.710938-26.613282 17.925782-29.929688 13.21875-3.316406 26.613281 4.710938 29.929687 17.925781l25.253907 100.660157c.8125 3.242187.960937 6.613281.429687 9.914062l-17.996094 112.140625c-2.15625 13.449219-14.8125 22.609375-28.265625 20.449219zm0 0" fill="#55696e"/><path d="m14.019531 509.332031c-12.152343-6.160156-17.007812-21.003906-10.847656-33.15625l51.992187-102.578125-13.714843-70.707031c-2.59375-13.375 6.148437-26.320313 19.519531-28.914063 13.382812-2.597656 26.320312 6.144532 28.914062 19.519532l15.324219 79.011718c1.046875 5.382813.265625 10.957032-2.210937 15.847657l-55.820313 110.125c-6.175781 12.183593-21.03125 16.996093-33.15625 10.851562zm0 0" fill="#748488"/><path d="m146.160156 178.875-67.160156-24.863281c-10.921875-4.042969-16.5-16.175781-12.457031-27.097657 4.046875-10.921874 16.175781-16.496093 27.101562-12.453124l61.042969 22.597656 71.328125-17.832032c11.300781-2.824218 22.75 4.046876 25.574219 15.34375 2.824218 11.300782-4.046875 22.75-15.34375 25.574219l-77.652344 19.414063c-4.117188 1.027344-8.449219.789062-12.433594-.683594zm0 0" fill="#80391b"/><path d="m152.039062 295.753906h-110.910156v-161.773437c0-15.988281 12.960938-28.949219 28.949219-28.949219h53.011719c15.988281 0 28.949218 12.960938 28.949218 28.949219zm0 0" fill="#55c7a6"/><path d="m149.40625 44.039062c0 24.316407-19.710938 44.03125-44.027344 44.03125s-44.027344-19.714843-44.027344-44.03125c0-24.316406 19.710938-44.0273432 44.027344-44.0273432s44.027344 19.7109372 44.027344 44.0273432zm0 0" fill="#80391b"/><path d="m149.359375 46.136719c.316406-6.523438-.8125-13.222657-3.589844-19.617188-9.675781-22.3125-35.605469-32.550781-57.914062-22.871093-17.273438 7.496093-27.300781 24.730468-26.457031 42.488281zm0 0" fill="#fa503c"/><path d="m175.152344 46.308594-59.5625-.171875c.050781-11.734375 9.601562-21.210938 21.339844-21.160157l38.3125.164063c5.84375.023437 10.5625 4.78125 10.539062 10.628906-.027344 5.84375-4.785156 10.5625-10.628906 10.539063zm0 0" fill="#e83e29"/><path d="m200.085938 258.128906-71.746094-35.484375c-3.007813-1.484375-5.613282-3.667969-7.609375-6.367187l-51.367188-69.507813c-6.921875-9.367187-4.941406-22.570312 4.425781-29.492187 9.367188-6.921875 22.570313-4.941406 29.492188 4.425781l48.332031 65.402344 67.171875 33.21875c10.4375 5.164062 14.714844 17.808593 9.554688 28.25-5.140625 10.386719-17.765625 14.742187-28.253906 9.554687zm0 0" fill="#80391b"/><path d="m130.628906 158.707031-27.347656-37.003906c-6.921875-9.367187-20.128906-11.347656-29.496094-4.425781-9.363281 6.921875-11.34375 20.125-4.425781 29.492187 9.058594 12.253907 18.097656 24.488281 27.222656 36.832031zm0 0" fill="#39ae96"/><path d="m334.773438 509.765625c-12.035157-5.582031-17.265626-19.863281-11.6875-31.898437l46.058593-99.328126-4.164062-83.507812c-.660157-13.25 9.546875-24.527344 22.796875-25.1875 13.257812-.644531 24.523437 9.546875 25.1875 22.796875l4.457031 89.429687c.195313 3.890626-.5625 7.765626-2.199219 11.300782l-48.550781 104.707031c-5.578125 12.035156-19.859375 17.265625-31.898437 11.6875zm0 0" fill="#5f6e9b"/><path d="m459.273438 490.0625-9.933594-113.773438-30.292969-90.074218c-4.226563-12.574219 2.539063-26.195313 15.113281-30.425782 12.578125-4.226562 26.195313 2.535157 30.425782 15.113282l31.203124 92.789062c.609376 1.804688.996094 3.671875 1.160157 5.570313l10.179687 116.621093c1.15625 13.21875-8.621094 24.867188-21.839844 26.019532-13.289062 1.160156-24.871093-8.691406-26.015624-21.839844zm0 0" fill="#414b82"/><path d="m477.570312 308.453125-109.699218-12.71875 17.25-148.769531c1.859375-16.011719 16.34375-27.488282 32.359375-25.632813l51.707031 5.996094c16.015625 1.859375 27.492188 16.34375 25.632812 32.359375zm0 0" fill="#64afff"/><path d="m500.109375 67.699219c0 23.863281-19.34375 43.210937-43.210937 43.210937-23.863282 0-43.207032-19.347656-43.207032-43.210937s19.34375-43.210938 43.207032-43.210938c23.867187 0 43.210937 19.347657 43.210937 43.210938zm0 0" fill="#ffb69e"/><path d="m355.671875 296.210938c10.246094 2.785156 20.800781-3.265626 23.585937-13.507813l19.214844-70.746094 61.121094-43.769531c8.628906-6.183594 10.613281-18.1875 4.4375-26.816406-6.179688-8.628906-18.1875-10.613282-26.816406-4.433594l-66.683594 47.753906c-3.597656 2.578125-6.195312 6.316406-7.355469 10.589844l-21.011719 77.347656c-2.796874 10.308594 3.332032 20.816406 13.507813 23.582032zm0 0" fill="#ffb69e"/><path d="m417.789062 198.121094 41.804688-29.9375c8.628906-6.179688 10.613281-18.183594 4.433594-26.8125-6.175782-8.628906-18.183594-10.613282-26.8125-4.433594l-41.472656 29.699219zm0 0" fill="#4699f2"/></svg>