<svg xmlns="http://www.w3.org/2000/svg" height="512pt" version="1.1" viewBox="0 0 512 512" width="512pt">
<g id="surface1">
<path d="M 328.128906 89 L 328.128906 84 C 328.128906 72.953125 319.171875 64 308.128906 64 C 297.082031 64 288.128906 72.953125 288.128906 84 L 288.128906 89 C 288.128906 141.46875 245.59375 184 193.128906 184 L 145 184 C 124.691406 184 105.871094 177.621094 90.429688 166.765625 C 107.988281 191.59375 133.707031 210.261719 163.648438 218.824219 L 163.648438 329.53125 L 227.929688 329.53125 L 227.929688 219.453125 C 285.558594 204.066406 328.128906 151.410156 328.128906 89 Z M 328.128906 89 " style=" stroke:none;fill-rule:nonzero;fill:rgb(44.705882%,84.705882%,100%);fill-opacity:1;" />
<path d="M 163 329.53125 L 215.753906 329.53125 L 215.753906 502 L 163 502 Z M 163 329.53125 " style=" stroke:none;fill-rule:nonzero;fill:rgb(35.294118%,32.941176%,87.843137%);fill-opacity:1;" />
<path d="M 183 103.820312 C 169.539062 109.730469 160.128906 123.167969 160.128906 138.8125 L 160.128906 145.761719 C 160.128906 161.40625 169.539062 174.84375 183 180.753906 C 196.464844 174.84375 205.871094 161.40625 205.871094 145.761719 L 205.871094 138.8125 C 205.871094 123.167969 196.464844 109.730469 183 103.820312 Z M 183 103.820312 " style=" stroke:none;fill-rule:nonzero;fill:rgb(98.823529%,77.647059%,61.568627%);fill-opacity:1;" />
<path d="M 356.875 276.289062 C 343.410156 282.199219 334.003906 295.640625 334.003906 311.285156 L 334.003906 318.230469 C 334.003906 333.875 343.410156 347.316406 356.875 353.222656 C 370.335938 347.316406 379.746094 333.875 379.746094 318.230469 L 379.746094 311.285156 C 379.746094 295.640625 370.335938 282.199219 356.875 276.289062 Z M 356.875 276.289062 " style=" stroke:none;fill-rule:nonzero;fill:rgb(98.823529%,77.647059%,61.568627%);fill-opacity:1;" />
<path d="M 309.125 158.730469 C 304.621094 155.535156 298.378906 156.59375 295.183594 161.097656 L 294.988281 161.371094 C 291.792969 165.875 292.851562 172.117188 297.355469 175.3125 C 299.113281 176.558594 301.132812 177.15625 303.136719 177.15625 C 306.265625 177.15625 309.351562 175.691406 311.300781 172.945312 L 311.492188 172.671875 C 314.691406 168.167969 313.628906 161.925781 309.125 158.730469 Z M 309.125 158.730469 " style=" stroke:none;fill-rule:nonzero;fill:rgb(0%,0%,0%);fill-opacity:1;" />
<path d="M 272.269531 185.679688 C 258.378906 197.074219 242.589844 205.1875 225.347656 209.792969 C 220.011719 211.21875 216.839844 216.695312 218.265625 222.03125 C 219.460938 226.503906 223.503906 229.457031 227.921875 229.457031 C 228.773438 229.457031 229.644531 229.347656 230.507812 229.113281 C 250.523438 223.769531 268.84375 214.359375 284.953125 201.140625 C 289.226562 197.640625 289.847656 191.339844 286.34375 187.070312 C 282.84375 182.796875 276.539062 182.175781 272.269531 185.679688 Z M 272.269531 185.679688 " style=" stroke:none;fill-rule:nonzero;fill:rgb(0%,0%,0%);fill-opacity:1;" />
<path d="M 401.800781 492 C 399.171875 492 396.589844 493.070312 394.730469 494.929688 C 392.871094 496.789062 391.800781 499.371094 391.800781 502 C 391.800781 504.628906 392.871094 507.210938 394.730469 509.070312 C 396.589844 510.929688 399.171875 512 401.800781 512 C 404.429688 512 407.011719 510.929688 408.871094 509.070312 C 410.730469 507.210938 411.800781 504.628906 411.800781 502 C 411.800781 499.371094 410.730469 496.789062 408.871094 494.929688 C 407.011719 493.070312 404.429688 492 401.800781 492 Z M 401.800781 492 " style=" stroke:none;fill-rule:nonzero;fill:rgb(0%,0%,0%);fill-opacity:1;" />
<path d="M 167.667969 374 C 162.144531 374 157.667969 378.476562 157.667969 384 L 157.667969 502 C 157.667969 507.523438 162.144531 512 167.667969 512 C 173.191406 512 177.667969 507.523438 177.667969 502 L 177.667969 384 C 177.667969 378.476562 173.191406 374 167.667969 374 Z M 167.667969 374 " style=" stroke:none;fill-rule:nonzero;fill:rgb(0%,0%,0%);fill-opacity:1;" />
<path d="M 466 114.429688 C 471.523438 114.429688 476 109.953125 476 104.429688 L 476 92 C 476 86.476562 471.523438 82 466 82 C 460.476562 82 456 86.476562 456 92 L 456 104.429688 C 456 109.953125 460.476562 114.429688 466 114.429688 Z M 466 114.429688 " style=" stroke:none;fill-rule:nonzero;fill:rgb(0%,0%,0%);fill-opacity:1;" />
<path d="M 466 174 C 471.523438 174 476 169.523438 476 164 L 476 151.570312 C 476 146.046875 471.523438 141.570312 466 141.570312 C 460.476562 141.570312 456 146.046875 456 151.570312 L 456 164 C 456 169.523438 460.476562 174 466 174 Z M 466 174 " style=" stroke:none;fill-rule:nonzero;fill:rgb(0%,0%,0%);fill-opacity:1;" />
<path d="M 489.570312 138 L 502 138 C 507.523438 138 512 133.523438 512 128 C 512 122.476562 507.523438 118 502 118 L 489.570312 118 C 484.046875 118 479.570312 122.476562 479.570312 128 C 479.570312 133.523438 484.046875 138 489.570312 138 Z M 489.570312 138 " style=" stroke:none;fill-rule:nonzero;fill:rgb(0%,0%,0%);fill-opacity:1;" />
<path d="M 430 138 L 442.429688 138 C 447.953125 138 452.429688 133.523438 452.429688 128 C 452.429688 122.476562 447.953125 118 442.429688 118 L 430 118 C 424.476562 118 420 122.476562 420 128 C 420 133.523438 424.476562 138 430 138 Z M 430 138 " style=" stroke:none;fill-rule:nonzero;fill:rgb(0%,0%,0%);fill-opacity:1;" />
<path d="M 219.871094 32.429688 C 225.394531 32.429688 229.871094 27.953125 229.871094 22.429688 L 229.871094 10 C 229.871094 4.476562 225.394531 0 219.871094 0 C 214.351562 0 209.871094 4.476562 209.871094 10 L 209.871094 22.429688 C 209.871094 27.953125 214.351562 32.429688 219.871094 32.429688 Z M 219.871094 32.429688 " style=" stroke:none;fill-rule:nonzero;fill:rgb(0%,0%,0%);fill-opacity:1;" />
<path d="M 219.871094 92 C 225.394531 92 229.871094 87.523438 229.871094 82 L 229.871094 69.570312 C 229.871094 64.046875 225.394531 59.570312 219.871094 59.570312 C 214.351562 59.570312 209.871094 64.046875 209.871094 69.570312 L 209.871094 82 C 209.871094 87.523438 214.351562 92 219.871094 92 Z M 219.871094 92 " style=" stroke:none;fill-rule:nonzero;fill:rgb(0%,0%,0%);fill-opacity:1;" />
<path d="M 243.441406 56 L 255.871094 56 C 261.394531 56 265.871094 51.523438 265.871094 46 C 265.871094 40.476562 261.394531 36 255.871094 36 L 243.441406 36 C 237.921875 36 233.441406 40.476562 233.441406 46 C 233.441406 51.523438 237.921875 56 243.441406 56 Z M 243.441406 56 " style=" stroke:none;fill-rule:nonzero;fill:rgb(0%,0%,0%);fill-opacity:1;" />
<path d="M 183.871094 56 L 196.304688 56 C 201.824219 56 206.304688 51.523438 206.304688 46 C 206.304688 40.476562 201.824219 36 196.304688 36 L 183.871094 36 C 178.351562 36 173.871094 40.476562 173.871094 46 C 173.871094 51.523438 178.351562 56 183.871094 56 Z M 183.871094 56 " style=" stroke:none;fill-rule:nonzero;fill:rgb(0%,0%,0%);fill-opacity:1;" />
<path d="M 250.917969 327.847656 C 234.1875 310.722656 223.871094 287.300781 223.871094 261.46875 L 223.871094 256.46875 C 223.871094 245.421875 214.917969 236.46875 203.871094 236.46875 C 192.828125 236.46875 183.871094 245.421875 183.871094 256.46875 L 183.871094 261.46875 C 183.871094 323.058594 225.328125 375.144531 281.800781 391.292969 L 281.800781 502 L 331.371094 502 L 331.371094 391.292969 C 297.007812 381.464844 268.203125 358.332031 250.917969 327.847656 Z M 250.917969 327.847656 " style=" stroke:none;fill-rule:nonzero;fill:rgb(100%,100%,100%);fill-opacity:1;" />
<path d="M 502 261.46875 L 502 256.46875 C 502 245.421875 493.046875 236.46875 482 236.46875 C 470.953125 236.46875 462 245.421875 462 256.46875 L 462 261.46875 C 462 313.9375 419.46875 356.46875 367 356.46875 L 318.871094 356.46875 C 292.238281 356.46875 268.167969 345.503906 250.917969 327.847656 C 268.203125 358.328125 297.007812 381.464844 331.371094 391.292969 L 331.371094 502 L 401.800781 502 L 401.800781 391.921875 C 459.429688 376.535156 502 323.878906 502 261.46875 Z M 502 261.46875 " style=" stroke:none;fill-rule:nonzero;fill:rgb(62.745098%,89.803922%,34.117647%);fill-opacity:1;" />
<path d="M 482 226.46875 C 465.457031 226.46875 452 239.929688 452 256.46875 L 452 261.46875 C 452 303.40625 421.464844 338.324219 381.464844 345.214844 C 386.6875 337.507812 389.746094 328.21875 389.746094 318.230469 L 389.746094 311.28125 C 389.746094 284.703125 368.121094 263.078125 341.539062 263.078125 C 314.960938 263.078125 293.335938 284.703125 293.335938 311.28125 L 293.335938 318.230469 C 293.335938 327.964844 296.246094 337.027344 301.230469 344.617188 C 262.800781 336.46875 233.871094 302.289062 233.871094 261.46875 L 233.871094 256.46875 C 233.871094 239.929688 220.414062 226.46875 203.871094 226.46875 C 187.328125 226.46875 173.871094 239.929688 173.871094 256.46875 L 173.871094 261.46875 C 173.871094 281.765625 178.003906 301.394531 185.96875 319.53125 L 117.925781 319.53125 L 117.925781 218.824219 C 117.925781 214.359375 114.96875 210.433594 110.675781 209.210938 C 57.289062 193.941406 20 144.507812 20 89 L 20 84 C 20 78.484375 24.484375 74 30 74 C 35.515625 74 40 78.484375 40 84 L 40 89 C 40 146.898438 87.101562 194 145 194 L 193.128906 194 C 251.023438 194 298.128906 146.898438 298.128906 89 L 298.128906 84 C 298.128906 78.484375 302.613281 74 308.128906 74 C 313.640625 74 318.128906 78.484375 318.128906 84 L 318.128906 89 C 318.128906 104.371094 315.359375 119.386719 309.894531 133.625 C 307.917969 138.78125 310.496094 144.566406 315.652344 146.542969 C 320.804688 148.523438 326.59375 145.941406 328.570312 140.785156 C 334.910156 124.253906 338.128906 106.828125 338.128906 89 L 338.128906 84 C 338.128906 67.457031 324.667969 54 308.128906 54 C 291.585938 54 278.128906 67.457031 278.128906 84 L 278.128906 89 C 278.128906 130.9375 247.59375 165.851562 207.59375 172.742188 C 212.816406 165.039062 215.871094 155.75 215.871094 145.761719 L 215.871094 138.816406 C 215.871094 112.234375 194.246094 90.609375 167.667969 90.609375 C 141.085938 90.609375 119.464844 112.234375 119.464844 138.816406 L 119.464844 145.761719 C 119.464844 155.496094 122.371094 164.558594 127.355469 172.144531 C 88.925781 164 60 129.820312 60 89 L 60 84 C 60 67.457031 46.542969 54 30 54 C 13.457031 54 0 67.457031 0 84 L 0 89 C 0 121.105469 10.320312 151.546875 29.847656 177.03125 C 47.191406 199.667969 71.15625 216.90625 97.929688 226.152344 L 97.929688 329.53125 C 97.929688 335.050781 102.40625 339.53125 107.929688 339.53125 L 109.753906 339.53125 L 109.753906 502 C 109.753906 507.523438 114.230469 512 119.753906 512 C 125.277344 512 129.753906 507.523438 129.753906 502 L 129.753906 339.53125 L 196.714844 339.53125 C 198.898438 342.929688 201.234375 346.257812 203.722656 349.503906 C 204.382812 350.367188 205.074219 351.207031 205.753906 352.054688 L 205.753906 502 C 205.753906 507.523438 210.230469 512 215.753906 512 C 221.277344 512 225.753906 507.523438 225.753906 502 L 225.753906 372.488281 C 239.378906 383.910156 255.039062 392.832031 271.800781 398.621094 L 271.800781 502 C 271.800781 507.523438 276.277344 512 281.800781 512 C 287.324219 512 291.800781 507.523438 291.800781 502 L 291.800781 391.292969 C 291.800781 386.828125 288.84375 382.902344 284.550781 381.679688 C 231.160156 366.410156 193.871094 316.980469 193.871094 261.46875 L 193.871094 256.46875 C 193.871094 250.953125 198.359375 246.46875 203.871094 246.46875 C 209.386719 246.46875 213.871094 250.953125 213.871094 256.46875 L 213.871094 261.46875 C 213.871094 319.367188 260.976562 366.46875 318.871094 366.46875 L 367 366.46875 C 424.898438 366.46875 472 319.367188 472 261.46875 L 472 256.46875 C 472 250.953125 476.484375 246.46875 482 246.46875 C 487.515625 246.46875 492 250.953125 492 256.46875 L 492 261.46875 C 492 318.003906 453.847656 367.675781 399.222656 382.261719 C 394.847656 383.429688 391.800781 387.394531 391.800781 391.921875 L 391.800781 464.332031 C 391.800781 469.855469 396.277344 474.332031 401.800781 474.332031 C 407.324219 474.332031 411.800781 469.855469 411.800781 464.332031 L 411.800781 399.390625 C 471.175781 380.101562 512 324.460938 512 261.46875 L 512 256.46875 C 512 239.929688 498.542969 226.46875 482 226.46875 Z M 139.464844 138.8125 C 139.464844 123.261719 152.113281 110.609375 167.667969 110.609375 C 183.21875 110.609375 195.871094 123.261719 195.871094 138.8125 L 195.871094 145.761719 C 195.871094 161.3125 183.21875 173.964844 167.667969 173.964844 C 152.113281 173.964844 139.464844 161.3125 139.464844 145.761719 Z M 313.335938 311.28125 C 313.335938 295.730469 325.988281 283.078125 341.539062 283.078125 C 357.09375 283.078125 369.746094 295.730469 369.746094 311.28125 L 369.746094 318.230469 C 369.746094 333.78125 357.09375 346.433594 341.539062 346.433594 C 325.988281 346.433594 313.335938 333.78125 313.335938 318.230469 Z M 313.335938 311.28125 " style=" stroke:none;fill-rule:nonzero;fill:rgb(0%,0%,0%);fill-opacity:1;" />
</g>
</svg>