<?xml version="1.0" encoding="iso-8859-1"?>
<!-- Generator: Adobe Illustrator 19.0.0, SVG Export Plug-In . SVG Version: 6.00 Build 0)  -->
<svg version="1.1" id="Capa_1" xmlns="http://www.w3.org/2000/svg" xmlns:xlink="http://www.w3.org/1999/xlink" x="0px" y="0px"
	 viewBox="0 0 482.024 482.024" style="enable-background:new 0 0 482.024 482.024;" xml:space="preserve">
<g>
	<path style="fill:#195C85;" d="M354.024,401.012h-312v-16h296v-56h16V401.012z"/>
	<path style="fill:#195C85;" d="M385.864,154.58l-15.68-3.136l17.288-86.432h38.552v16h-25.448L385.864,154.58z"/>
</g>
<path style="fill:#FDBD40;" d="M0,145.012l43.64,192h309.064l34.904-192H0z"/>
<g>
	<circle style="fill:#7D8D9C;" cx="82.024" cy="425.012" r="32"/>
	<circle style="fill:#7D8D9C;" cx="346.024" cy="425.012" r="32"/>
</g>
<path style="fill:#E9686A;" d="M426.024,57.012h32c8.837,0,16,7.163,16,16s-7.163,16-16,16h-32l0,0V57.012L426.024,57.012z"/>
<path style="fill:#36AFAD;" d="M34.028,89.017l47.999-47.999l32.001,32.001l-47.999,47.999L34.028,89.017z"/>
<path style="fill:#FCF05A;" d="M146.024,89.012h112v32h-112V89.012z"/>
<path style="fill:#55B56A;" d="M290.024,25.012h48v96h-48V25.012z"/>
<g>
	<g>
		<path id="SVGCleanerId_0" style="fill:#FCF05A;" d="M138.024,49.012h48v16h-48V49.012z"/>
	</g>
	<g>
		<path id="SVGCleanerId_1" style="fill:#FCF05A;" d="M82.024,289.012h232v16h-232V289.012z"/>
	</g>
	<g>
		<path id="SVGCleanerId_2" style="fill:#FCF05A;" d="M50.024,177.012h32v16h-32V177.012z"/>
	</g>
	<path style="fill:#FCF05A;" d="M18.024,177.012h16v16h-16V177.012z"/>
	<g>
		<path id="SVGCleanerId_3" style="fill:#FCF05A;" d="M98.024,177.012h32v16h-32V177.012z"/>
	</g>
	<g>
		<path id="SVGCleanerId_4" style="fill:#FCF05A;" d="M146.024,177.012h32v16h-32V177.012z"/>
	</g>
	<g>
		<path id="SVGCleanerId_5" style="fill:#FCF05A;" d="M194.024,177.012h32v16h-32V177.012z"/>
	</g>
	<g>
		<path id="SVGCleanerId_6" style="fill:#FCF05A;" d="M242.024,177.012h32v16h-32V177.012z"/>
	</g>
	<g>
		<path id="SVGCleanerId_7" style="fill:#FCF05A;" d="M290.024,177.012h32v16h-32V177.012z"/>
	</g>
	<path style="fill:#FCF05A;" d="M338.024,177.012h32v16h-32V177.012z"/>
</g>
<circle cx="82.024" cy="425.012" r="8"/>
<path d="M338.144,425.012c0,4.418,3.582,8,8,8s8-3.582,8-8c0-4.403-3.557-7.978-7.96-8h-0.08
	C341.701,417.034,338.144,420.609,338.144,425.012L338.144,425.012z"/>
<path d="M458.024,49.012h-40v16h-30.552l-16,80H0l43.624,192h294.4v48h-296v16h8.208c-5.294,6.883-8.179,15.316-8.208,24
	c0,22.091,17.909,40,40,40s40-17.909,40-40c-0.029-8.684-2.914-17.117-8.208-24h200.416c-5.294,6.883-8.179,15.316-8.208,24
	c0.005,22.091,17.917,39.996,40.008,39.992s39.996-17.917,39.992-40.008c-0.004-19.005-13.379-35.383-32-39.184v-56.064
	l31.872-175.288l14.68-73.448h17.448v16h40c13.255,0,24-10.745,24-24S471.279,49.012,458.024,49.012z M82.024,449.012
	c-13.255,0-24-10.745-24-24s10.745-24,24-24s24,10.745,24,24S95.279,449.012,82.024,449.012L82.024,449.012z M370.024,425.012
	c0,13.255-10.745,24-24,24s-24-10.745-24-24s10.745-24,24-24l0,0C359.279,401.012,370.024,411.757,370.024,425.012z
	 M365.528,177.012h-27.504v16h24.592l-23.272,128H56.424l-29.104-128h6.704v-16H23.68l-3.632-16h348.376L365.528,177.012z
	 M458.024,81.012h-24v-16h24c4.418,0,8,3.582,8,8S462.442,81.012,458.024,81.012z"/>
<path d="M125.336,73.012L82.024,29.7L22.712,89.012l43.312,43.312L125.336,73.012z M82.024,52.324l20.688,20.688L66.024,109.7
	L45.336,89.012L82.024,52.324z"/>
<path d="M138.024,129.012h128v-48h-128V129.012z M154.024,97.012h96v16h-96V97.012z"/>
<path d="M282.024,129.012h64v-112h-64V129.012z M298.024,33.012h32v80h-32V33.012z"/>
<path id="SVGCleanerId_0_1_" d="M138.024,49.012h48v16h-48V49.012z"/>
<path d="M26.104,113.012c-4.44,0.022-8.022,3.64-8,8.08c0.022,4.44,3.64,8.022,8.08,8s8.022-3.64,8-8.08
	c-0.022-4.409-3.591-7.978-8-8H26.104z"/>
<path d="M258.184,49.012h-0.08c-4.44,0.022-8.022,3.64-8,8.08s3.64,8.022,8.08,8c4.44-0.022,8.022-3.64,8-8.08
	C266.162,52.603,262.593,49.034,258.184,49.012z"/>
<path id="SVGCleanerId_1_1_" d="M82.024,289.012h232v16h-232V289.012z"/>
<path id="SVGCleanerId_2_1_" d="M50.024,177.012h32v16h-32V177.012z"/>
<path id="SVGCleanerId_3_1_" d="M98.024,177.012h32v16h-32V177.012z"/>
<path id="SVGCleanerId_4_1_" d="M146.024,177.012h32v16h-32V177.012z"/>
<path id="SVGCleanerId_5_1_" d="M194.024,177.012h32v16h-32V177.012z"/>
<path id="SVGCleanerId_6_1_" d="M242.024,177.012h32v16h-32V177.012z"/>
<path id="SVGCleanerId_7_1_" d="M290.024,177.012h32v16h-32V177.012z"/>
<g>
</g>
<g>
</g>
<g>
</g>
<g>
</g>
<g>
</g>
<g>
</g>
<g>
</g>
<g>
</g>
<g>
</g>
<g>
</g>
<g>
</g>
<g>
</g>
<g>
</g>
<g>
</g>
<g>
</g>
</svg>
