<svg id="Capa_1" enable-background="new 0 0 512 512" height="512" viewBox="0 0 512 512" width="512" xmlns="http://www.w3.org/2000/svg"><path d="m446 226h-380c-11.05 0-20 8.95-20 20v236c0 11.05 8.95 20 20 20h380c11.05 0 20-8.95 20-20v-236c0-11.05-8.95-20-20-20z" fill="#ecf2f3"/><path d="m406 286v53.57c0 27.136-10.783 53.213-30 72.43-19.21-19.21-30-45.26-30-72.43v-53.57z" fill="#fed2a4"/><path d="m406 286h-60c0-6.653 0-193.33 0-216h60z" fill="#ff7b79"/><path d="m346 10h60v60h-60z" fill="#8690af"/><path d="m466 176c5.522 0 10-4.477 10-10 0-23.87 0-99.547 0-126 0-5.523-4.478-10-10-10s-10 4.477-10 10v20h-40v-50c0-5.523-4.478-10-10-10h-60c-5.522 0-10 4.477-10 10v206h-270c-16.542 0-30 13.458-30 30v236c0 16.542 13.458 30 30 30h145c5.522 0 10-4.477 10-10s-4.478-10-10-10h-145c-5.514 0-10-4.486-10-10v-236c0-5.514 4.486-10 10-10h270v103.57c0 28.619 10.626 55.599 30 76.451v15.979h-50c-11.045 0-20-8.954-20-20 0-22.097-17.898-40-40-40-22.097 0-40 17.898-40 40 0 11.045-8.954 20-20 20-11.028 0-20-8.972-20-20v-66c0-22.056-17.944-40-40-40h-30c-5.522 0-10 4.477-10 10s4.478 10 10 10h30c11.028 0 20 8.972 20 20v66c0 22.056 17.944 40 40 40 22.097 0 40-17.898 40-40 0-11.045 8.954-20 20-20 11.045 0 20 8.954 20 20 0 22.097 17.898 40 40 40h60c5.522 0 10-4.477 10-10v-25.981c19.168-20.648 30-47.908 30-76.449v-103.57h30c5.514 0 10 4.486 10 10v236c0 5.514-4.486 10-10 10h-145c-5.522 0-10 4.477-10 10s4.478 10 10 10h145c16.542 0 30-13.458 30-30v-236c0-16.542-13.458-30-30-30h-30v-136h40v86c0 5.523 4.478 10 10 10zm-70-156v40h-40v-40zm-20.005 377.008c-12.961-16.28-19.995-36.318-19.995-57.438v-43.57h40v43.57c0 21.579-7.531 41.727-20.005 57.438zm20.005-121.008h-40v-196h40z"/><circle cx="256" cy="502" r="10"/></svg>